<mxfile host="app.diagrams.net" agent="Mozilla/5.0 (Windows NT 10.0; Win64; x64; rv:139.0) Gecko/20100101 Firefox/139.0" version="27.1.6" pages="2">
  <diagram name="Page-1" id="P7Q_i6ipysdPem5cXLxQ">
    <mxGraphModel dx="983" dy="589" grid="1" gridSize="10" guides="1" tooltips="1" connect="1" arrows="1" fold="1" page="1" pageScale="1" pageWidth="3300" pageHeight="4681" math="0" shadow="0">
      <root>
        <mxCell id="0" />
        <mxCell id="1" parent="0" />
        <mxCell id="9VG51xoYR0WrICZdvRi9-3" style="edgeStyle=orthogonalEdgeStyle;rounded=0;orthogonalLoop=1;jettySize=auto;html=1;exitX=1;exitY=0.5;exitDx=0;exitDy=0;entryX=0;entryY=0.5;entryDx=0;entryDy=0;" edge="1" parent="1" source="9VG51xoYR0WrICZdvRi9-1" target="9VG51xoYR0WrICZdvRi9-2">
          <mxGeometry relative="1" as="geometry" />
        </mxCell>
        <mxCell id="9VG51xoYR0WrICZdvRi9-1" value="data&#xa;Respiratory&#xa;Signals" style="rectangle;fillColor=#fff2cc;strokeColor=#d6b656;" name="data" vertex="1" parent="1">
          <mxGeometry x="340" y="230" width="100" height="50" as="geometry" />
        </mxCell>
        <mxCell id="9VG51xoYR0WrICZdvRi9-5" style="edgeStyle=orthogonalEdgeStyle;rounded=0;orthogonalLoop=1;jettySize=auto;html=1;exitX=1;exitY=0.5;exitDx=0;exitDy=0;entryX=0.5;entryY=0;entryDx=0;entryDy=0;" edge="1" parent="1" source="9VG51xoYR0WrICZdvRi9-2" target="9VG51xoYR0WrICZdvRi9-4">
          <mxGeometry relative="1" as="geometry" />
        </mxCell>
        <mxCell id="9VG51xoYR0WrICZdvRi9-2" value="transform" style="rounded=1;whiteSpace=wrap;html=1;arcSize=50;fillColor=#f8cecc;strokeColor=#b85450;" name="transform" vertex="1" parent="1">
          <mxGeometry x="520" y="230" width="100" height="50" as="geometry" />
        </mxCell>
        <mxCell id="9VG51xoYR0WrICZdvRi9-7" style="edgeStyle=orthogonalEdgeStyle;rounded=0;orthogonalLoop=1;jettySize=auto;html=1;exitX=0.5;exitY=1;exitDx=0;exitDy=0;entryX=1;entryY=0.5;entryDx=0;entryDy=0;" edge="1" parent="1" source="9VG51xoYR0WrICZdvRi9-4" target="9VG51xoYR0WrICZdvRi9-6">
          <mxGeometry relative="1" as="geometry" />
        </mxCell>
        <mxCell id="9VG51xoYR0WrICZdvRi9-4" value="data&#xa;Extracted Features" style="rectangle;fillColor=#fff2cc;strokeColor=#d6b656;" name="data" vertex="1" parent="1">
          <mxGeometry x="650" y="330" width="100" height="50" as="geometry" />
        </mxCell>
        <mxCell id="9VG51xoYR0WrICZdvRi9-9" style="edgeStyle=orthogonalEdgeStyle;rounded=0;orthogonalLoop=1;jettySize=auto;html=1;exitX=0;exitY=0.5;exitDx=0;exitDy=0;entryX=0.5;entryY=0;entryDx=0;entryDy=0;" edge="1" parent="1" source="9VG51xoYR0WrICZdvRi9-6" target="9VG51xoYR0WrICZdvRi9-8">
          <mxGeometry relative="1" as="geometry" />
        </mxCell>
        <mxCell id="9VG51xoYR0WrICZdvRi9-6" value="transform" style="rounded=1;whiteSpace=wrap;html=1;arcSize=50;fillColor=#f8cecc;strokeColor=#b85450;" name="transform" vertex="1" parent="1" tooltip="⚠️ Node not part of any valid pattern.">
          <mxGeometry x="520" y="430" width="100" height="50" as="geometry" />
        </mxCell>
        <mxCell id="9VG51xoYR0WrICZdvRi9-11" style="edgeStyle=orthogonalEdgeStyle;rounded=0;orthogonalLoop=1;jettySize=auto;html=1;exitX=0.5;exitY=1;exitDx=0;exitDy=0;entryX=0.5;entryY=0;entryDx=0;entryDy=0;" edge="1" parent="1" source="9VG51xoYR0WrICZdvRi9-8" target="9VG51xoYR0WrICZdvRi9-10">
          <mxGeometry relative="1" as="geometry" />
        </mxCell>
        <mxCell id="9VG51xoYR0WrICZdvRi9-8" value="symbol&#xa;Patient Group&#xa;Clusters" style="rectangle;fillColor=#dae8fc;strokeColor=#6c8ebf;" name="symbol" vertex="1" parent="1">
          <mxGeometry x="390" y="530" width="100" height="50" as="geometry" />
        </mxCell>
        <mxCell id="9VG51xoYR0WrICZdvRi9-21" style="edgeStyle=orthogonalEdgeStyle;rounded=0;orthogonalLoop=1;jettySize=auto;html=1;exitX=0.5;exitY=1;exitDx=0;exitDy=0;entryX=0.5;entryY=0;entryDx=0;entryDy=0;" edge="1" parent="1" source="9VG51xoYR0WrICZdvRi9-10" target="9VG51xoYR0WrICZdvRi9-20">
          <mxGeometry relative="1" as="geometry" />
        </mxCell>
        <mxCell id="9VG51xoYR0WrICZdvRi9-10" value="generate:train" style="rounded=1;whiteSpace=wrap;html=1;arcSize=50;fillColor=#e1d5e7;strokeColor=#9673a6;" name="generate:train" vertex="1" parent="1">
          <mxGeometry x="390" y="660" width="100" height="50" as="geometry" />
        </mxCell>
        <mxCell id="9VG51xoYR0WrICZdvRi9-12" value="symbol&#xa;Expert Fuzzy&#xa;Rules" style="rectangle;fillColor=#dae8fc;strokeColor=#6c8ebf;" name="symbol" vertex="1" parent="1">
          <mxGeometry x="570" y="660" width="100" height="50" as="geometry" />
        </mxCell>
        <mxCell id="9VG51xoYR0WrICZdvRi9-14" value="&lt;div&gt;error&lt;/div&gt;&lt;div&gt;&amp;lt;--&lt;/div&gt;" style="text;html=1;align=center;verticalAlign=middle;whiteSpace=wrap;rounded=0;dashed=1;fillColor=#f5f5f5;fontColor=#333333;strokeColor=#666666;strokeWidth=2;" name="text" vertex="1" parent="1">
          <mxGeometry x="490" y="670" width="80" height="30" as="geometry" />
        </mxCell>
        <mxCell id="9VG51xoYR0WrICZdvRi9-15" value="generate:engineer" style="rounded=1;whiteSpace=wrap;html=1;arcSize=50;fillColor=#e1d5e7;strokeColor=#9673a6;" name="generate:engineer" vertex="1" parent="1">
          <mxGeometry x="750" y="660" width="100" height="50" as="geometry" />
        </mxCell>
        <mxCell id="9VG51xoYR0WrICZdvRi9-17" value="&lt;div&gt;error&lt;/div&gt;&lt;div&gt;&amp;lt;--&lt;/div&gt;" style="text;html=1;align=center;verticalAlign=middle;whiteSpace=wrap;rounded=0;dashed=1;fillColor=#f5f5f5;fontColor=#333333;strokeColor=#666666;strokeWidth=2;" name="text" vertex="1" parent="1">
          <mxGeometry x="670" y="670" width="80" height="30" as="geometry" />
        </mxCell>
        <mxCell id="9VG51xoYR0WrICZdvRi9-19" style="edgeStyle=orthogonalEdgeStyle;rounded=0;orthogonalLoop=1;jettySize=auto;html=1;entryX=1;entryY=0.5;entryDx=0;entryDy=0;" edge="1" parent="1" source="9VG51xoYR0WrICZdvRi9-18" target="9VG51xoYR0WrICZdvRi9-15">
          <mxGeometry relative="1" as="geometry" />
        </mxCell>
        <mxCell id="9VG51xoYR0WrICZdvRi9-18" value="actor&#xa;Experts" style="triangle;fillColor=#ffe6cc;strokeColor=#d79b00;" name="actor" vertex="1" parent="1">
          <mxGeometry x="930" y="660" width="100" height="50" as="geometry" />
        </mxCell>
        <mxCell id="9VG51xoYR0WrICZdvRi9-23" style="edgeStyle=orthogonalEdgeStyle;rounded=0;orthogonalLoop=1;jettySize=auto;html=1;exitX=0.5;exitY=1;exitDx=0;exitDy=0;entryX=0.5;entryY=0;entryDx=0;entryDy=0;" edge="1" parent="1" source="9VG51xoYR0WrICZdvRi9-20" target="9VG51xoYR0WrICZdvRi9-22">
          <mxGeometry relative="1" as="geometry" />
        </mxCell>
        <mxCell id="9VG51xoYR0WrICZdvRi9-20" value="model:hybrid&#xa;FDL" style="shape=hexagon;perimeter=hexagonPerimeter2;fillColor=#b0e3e6;strokeColor=#0e8088;" name="model" vertex="1" parent="1">
          <mxGeometry x="380" y="790" width="120" height="50" as="geometry" />
        </mxCell>
        <mxCell id="9VG51xoYR0WrICZdvRi9-27" style="edgeStyle=orthogonalEdgeStyle;rounded=0;orthogonalLoop=1;jettySize=auto;html=1;entryX=0.5;entryY=0;entryDx=0;entryDy=0;" edge="1" parent="1" source="9VG51xoYR0WrICZdvRi9-22" target="9VG51xoYR0WrICZdvRi9-26">
          <mxGeometry relative="1" as="geometry" />
        </mxCell>
        <mxCell id="9VG51xoYR0WrICZdvRi9-22" value="infer:deduce" style="rounded=1;whiteSpace=wrap;html=1;arcSize=50;fillColor=#bac8d3;strokeColor=#23445d;" name="infer:deduce" vertex="1" parent="1">
          <mxGeometry x="390" y="920" width="100" height="50" as="geometry" />
        </mxCell>
        <mxCell id="9VG51xoYR0WrICZdvRi9-25" style="edgeStyle=orthogonalEdgeStyle;rounded=0;orthogonalLoop=1;jettySize=auto;html=1;exitX=0;exitY=0.5;exitDx=0;exitDy=0;entryX=1;entryY=0.5;entryDx=0;entryDy=0;" edge="1" parent="1" source="9VG51xoYR0WrICZdvRi9-24" target="9VG51xoYR0WrICZdvRi9-22">
          <mxGeometry relative="1" as="geometry" />
        </mxCell>
        <mxCell id="9VG51xoYR0WrICZdvRi9-24" value="data&#xa;Patient Respiratory&#xa;Signals" style="rectangle;fillColor=#fff2cc;strokeColor=#d6b656;" name="data" vertex="1" parent="1">
          <mxGeometry x="570" y="920" width="100" height="50" as="geometry" />
        </mxCell>
        <mxCell id="9VG51xoYR0WrICZdvRi9-26" value="symbol&#xa;Tumor Position&#xa;Predictions" style="rectangle;fillColor=#dae8fc;strokeColor=#6c8ebf;" name="symbol" vertex="1" parent="1">
          <mxGeometry x="390" y="1050" width="100" height="50" as="geometry" />
        </mxCell>
        <mxCell id="9VG51xoYR0WrICZdvRi9-28" value="error" style="text;html=1;align=center;verticalAlign=middle;whiteSpace=wrap;rounded=0;dashed=1;fillColor=#f5f5f5;fontColor=#333333;strokeColor=#666666;strokeWidth=2;" name="text" vertex="1" parent="1">
          <mxGeometry x="550" y="500" width="40" height="30" as="geometry" />
        </mxCell>
      </root>
    </mxGraphModel>
  </diagram>
  <diagram name="Copy of Page-1" id="a8GOBN_g6EuTt6W0SLFB">
    <mxGraphModel dx="1572" dy="942" grid="1" gridSize="10" guides="1" tooltips="1" connect="1" arrows="1" fold="1" page="1" pageScale="1" pageWidth="3300" pageHeight="4681" math="0" shadow="0">
      <root>
        <mxCell id="27Lz67ysHTh7FIN5YOJA-0" />
        <mxCell id="27Lz67ysHTh7FIN5YOJA-1" parent="27Lz67ysHTh7FIN5YOJA-0" />
        <mxCell id="27Lz67ysHTh7FIN5YOJA-2" style="edgeStyle=orthogonalEdgeStyle;rounded=0;orthogonalLoop=1;jettySize=auto;html=1;exitX=1;exitY=0.5;exitDx=0;exitDy=0;entryX=0;entryY=0.5;entryDx=0;entryDy=0;" edge="1" parent="27Lz67ysHTh7FIN5YOJA-1" source="27Lz67ysHTh7FIN5YOJA-3" target="27Lz67ysHTh7FIN5YOJA-5">
          <mxGeometry relative="1" as="geometry" />
        </mxCell>
        <mxCell id="27Lz67ysHTh7FIN5YOJA-3" value="data&#xa;Respiratory&#xa;Signals" style="rectangle;fillColor=#fff2cc;strokeColor=#d6b656;" name="data" vertex="1" parent="27Lz67ysHTh7FIN5YOJA-1">
          <mxGeometry x="340" y="230" width="100" height="50" as="geometry" />
        </mxCell>
        <mxCell id="27Lz67ysHTh7FIN5YOJA-4" style="edgeStyle=orthogonalEdgeStyle;rounded=0;orthogonalLoop=1;jettySize=auto;html=1;exitX=1;exitY=0.5;exitDx=0;exitDy=0;entryX=0.5;entryY=0;entryDx=0;entryDy=0;" edge="1" parent="27Lz67ysHTh7FIN5YOJA-1" source="27Lz67ysHTh7FIN5YOJA-5" target="27Lz67ysHTh7FIN5YOJA-7">
          <mxGeometry relative="1" as="geometry" />
        </mxCell>
        <mxCell id="27Lz67ysHTh7FIN5YOJA-5" value="transform" style="rounded=1;whiteSpace=wrap;html=1;arcSize=50;fillColor=#f8cecc;strokeColor=#b85450;" name="transform" vertex="1" parent="27Lz67ysHTh7FIN5YOJA-1">
          <mxGeometry x="520" y="230" width="100" height="50" as="geometry" />
        </mxCell>
        <mxCell id="27Lz67ysHTh7FIN5YOJA-6" style="edgeStyle=orthogonalEdgeStyle;rounded=0;orthogonalLoop=1;jettySize=auto;html=1;exitX=0.5;exitY=1;exitDx=0;exitDy=0;entryX=1;entryY=0.5;entryDx=0;entryDy=0;" edge="1" parent="27Lz67ysHTh7FIN5YOJA-1" source="27Lz67ysHTh7FIN5YOJA-7" target="27Lz67ysHTh7FIN5YOJA-9">
          <mxGeometry relative="1" as="geometry" />
        </mxCell>
        <mxCell id="27Lz67ysHTh7FIN5YOJA-7" value="data&#xa;Extracted Features" style="rectangle;fillColor=#fff2cc;strokeColor=#d6b656;" name="data" vertex="1" parent="27Lz67ysHTh7FIN5YOJA-1">
          <mxGeometry x="650" y="330" width="100" height="50" as="geometry" />
        </mxCell>
        <mxCell id="27Lz67ysHTh7FIN5YOJA-8" style="edgeStyle=orthogonalEdgeStyle;rounded=0;orthogonalLoop=1;jettySize=auto;html=1;exitX=0;exitY=0.5;exitDx=0;exitDy=0;entryX=0.5;entryY=0;entryDx=0;entryDy=0;" edge="1" parent="27Lz67ysHTh7FIN5YOJA-1" source="27Lz67ysHTh7FIN5YOJA-9" target="27Lz67ysHTh7FIN5YOJA-11">
          <mxGeometry relative="1" as="geometry" />
        </mxCell>
        <mxCell id="27Lz67ysHTh7FIN5YOJA-9" value="transform" style="rounded=1;whiteSpace=wrap;html=1;arcSize=50;fillColor=#f8cecc;strokeColor=#b85450;" name="transform" vertex="1" parent="27Lz67ysHTh7FIN5YOJA-1">
          <mxGeometry x="520" y="430" width="100" height="50" as="geometry" />
        </mxCell>
        <mxCell id="27Lz67ysHTh7FIN5YOJA-10" style="edgeStyle=orthogonalEdgeStyle;rounded=0;orthogonalLoop=1;jettySize=auto;html=1;exitX=0.5;exitY=1;exitDx=0;exitDy=0;entryX=0.5;entryY=0;entryDx=0;entryDy=0;" edge="1" parent="27Lz67ysHTh7FIN5YOJA-1" source="27Lz67ysHTh7FIN5YOJA-11" target="27Lz67ysHTh7FIN5YOJA-13">
          <mxGeometry relative="1" as="geometry" />
        </mxCell>
        <mxCell id="27Lz67ysHTh7FIN5YOJA-11" value="symbol&#xa;Patient Group&#xa;Clusters" style="rectangle;fillColor=#dae8fc;strokeColor=#6c8ebf;" name="symbol" vertex="1" parent="27Lz67ysHTh7FIN5YOJA-1">
          <mxGeometry x="390" y="530" width="100" height="50" as="geometry" />
        </mxCell>
        <mxCell id="27Lz67ysHTh7FIN5YOJA-12" style="edgeStyle=orthogonalEdgeStyle;rounded=0;orthogonalLoop=1;jettySize=auto;html=1;exitX=0.5;exitY=1;exitDx=0;exitDy=0;entryX=0.5;entryY=0;entryDx=0;entryDy=0;" edge="1" parent="27Lz67ysHTh7FIN5YOJA-1" source="27Lz67ysHTh7FIN5YOJA-13" target="27Lz67ysHTh7FIN5YOJA-21">
          <mxGeometry relative="1" as="geometry" />
        </mxCell>
        <mxCell id="27Lz67ysHTh7FIN5YOJA-13" value="generate:train" style="rounded=1;whiteSpace=wrap;html=1;arcSize=50;fillColor=#e1d5e7;strokeColor=#9673a6;" name="generate:train" vertex="1" parent="27Lz67ysHTh7FIN5YOJA-1">
          <mxGeometry x="390" y="660" width="100" height="50" as="geometry" />
        </mxCell>
        <mxCell id="nQ9LSOT_9R6scqrsMcr--1" style="edgeStyle=orthogonalEdgeStyle;rounded=0;orthogonalLoop=1;jettySize=auto;html=1;exitX=0;exitY=0.5;exitDx=0;exitDy=0;entryX=1;entryY=0.5;entryDx=0;entryDy=0;" edge="1" parent="27Lz67ysHTh7FIN5YOJA-1" source="27Lz67ysHTh7FIN5YOJA-14" target="27Lz67ysHTh7FIN5YOJA-13">
          <mxGeometry relative="1" as="geometry" />
        </mxCell>
        <mxCell id="27Lz67ysHTh7FIN5YOJA-14" value="symbol&#xa;Expert Fuzzy&#xa;Rules" style="rectangle;fillColor=#dae8fc;strokeColor=#6c8ebf;" name="symbol" vertex="1" parent="27Lz67ysHTh7FIN5YOJA-1">
          <mxGeometry x="570" y="660" width="100" height="50" as="geometry" />
        </mxCell>
        <mxCell id="nQ9LSOT_9R6scqrsMcr--0" style="edgeStyle=orthogonalEdgeStyle;rounded=0;orthogonalLoop=1;jettySize=auto;html=1;exitX=0;exitY=0.5;exitDx=0;exitDy=0;entryX=1;entryY=0.5;entryDx=0;entryDy=0;" edge="1" parent="27Lz67ysHTh7FIN5YOJA-1" source="27Lz67ysHTh7FIN5YOJA-16" target="27Lz67ysHTh7FIN5YOJA-14">
          <mxGeometry relative="1" as="geometry" />
        </mxCell>
        <mxCell id="27Lz67ysHTh7FIN5YOJA-16" value="generate:engineer" style="rounded=1;whiteSpace=wrap;html=1;arcSize=50;fillColor=#e1d5e7;strokeColor=#9673a6;" name="generate:engineer" vertex="1" parent="27Lz67ysHTh7FIN5YOJA-1">
          <mxGeometry x="750" y="660" width="100" height="50" as="geometry" />
        </mxCell>
        <mxCell id="27Lz67ysHTh7FIN5YOJA-18" style="edgeStyle=orthogonalEdgeStyle;rounded=0;orthogonalLoop=1;jettySize=auto;html=1;entryX=1;entryY=0.5;entryDx=0;entryDy=0;" edge="1" parent="27Lz67ysHTh7FIN5YOJA-1" source="27Lz67ysHTh7FIN5YOJA-19" target="27Lz67ysHTh7FIN5YOJA-16">
          <mxGeometry relative="1" as="geometry" />
        </mxCell>
        <mxCell id="27Lz67ysHTh7FIN5YOJA-19" value="actor&#xa;Experts" style="triangle;fillColor=#ffe6cc;strokeColor=#d79b00;" name="actor" vertex="1" parent="27Lz67ysHTh7FIN5YOJA-1">
          <mxGeometry x="930" y="660" width="100" height="50" as="geometry" />
        </mxCell>
        <mxCell id="27Lz67ysHTh7FIN5YOJA-20" style="edgeStyle=orthogonalEdgeStyle;rounded=0;orthogonalLoop=1;jettySize=auto;html=1;exitX=0.5;exitY=1;exitDx=0;exitDy=0;entryX=0.5;entryY=0;entryDx=0;entryDy=0;" edge="1" parent="27Lz67ysHTh7FIN5YOJA-1" source="27Lz67ysHTh7FIN5YOJA-21" target="27Lz67ysHTh7FIN5YOJA-23">
          <mxGeometry relative="1" as="geometry" />
        </mxCell>
        <mxCell id="27Lz67ysHTh7FIN5YOJA-21" value="model:hybrid&#xa;FDL" style="shape=hexagon;perimeter=hexagonPerimeter2;fillColor=#b0e3e6;strokeColor=#0e8088;" name="model" vertex="1" parent="27Lz67ysHTh7FIN5YOJA-1">
          <mxGeometry x="380" y="790" width="120" height="50" as="geometry" />
        </mxCell>
        <mxCell id="27Lz67ysHTh7FIN5YOJA-22" style="edgeStyle=orthogonalEdgeStyle;rounded=0;orthogonalLoop=1;jettySize=auto;html=1;entryX=0.5;entryY=0;entryDx=0;entryDy=0;" edge="1" parent="27Lz67ysHTh7FIN5YOJA-1" source="27Lz67ysHTh7FIN5YOJA-23" target="27Lz67ysHTh7FIN5YOJA-26">
          <mxGeometry relative="1" as="geometry" />
        </mxCell>
        <mxCell id="27Lz67ysHTh7FIN5YOJA-23" value="infer:deduce" style="rounded=1;whiteSpace=wrap;html=1;arcSize=50;fillColor=#bac8d3;strokeColor=#23445d;" name="infer:deduce" vertex="1" parent="27Lz67ysHTh7FIN5YOJA-1">
          <mxGeometry x="390" y="920" width="100" height="50" as="geometry" />
        </mxCell>
        <mxCell id="27Lz67ysHTh7FIN5YOJA-24" style="edgeStyle=orthogonalEdgeStyle;rounded=0;orthogonalLoop=1;jettySize=auto;html=1;exitX=0;exitY=0.5;exitDx=0;exitDy=0;entryX=1;entryY=0.5;entryDx=0;entryDy=0;" edge="1" parent="27Lz67ysHTh7FIN5YOJA-1" source="27Lz67ysHTh7FIN5YOJA-25" target="27Lz67ysHTh7FIN5YOJA-23">
          <mxGeometry relative="1" as="geometry" />
        </mxCell>
        <mxCell id="27Lz67ysHTh7FIN5YOJA-25" value="data&#xa;Patient Respiratory&#xa;Signals" style="rectangle;fillColor=#fff2cc;strokeColor=#d6b656;" name="data" vertex="1" parent="27Lz67ysHTh7FIN5YOJA-1">
          <mxGeometry x="570" y="920" width="100" height="50" as="geometry" />
        </mxCell>
        <mxCell id="27Lz67ysHTh7FIN5YOJA-26" value="symbol&#xa;Tumor Position&#xa;Predictions" style="rectangle;fillColor=#dae8fc;strokeColor=#6c8ebf;" name="symbol" vertex="1" parent="27Lz67ysHTh7FIN5YOJA-1">
          <mxGeometry x="390" y="1050" width="100" height="50" as="geometry" />
        </mxCell>
        <mxCell id="27Lz67ysHTh7FIN5YOJA-27" value="error" style="text;html=1;align=center;verticalAlign=middle;whiteSpace=wrap;rounded=0;dashed=1;fillColor=#f5f5f5;fontColor=#333333;strokeColor=#666666;strokeWidth=2;" name="text" vertex="1" parent="27Lz67ysHTh7FIN5YOJA-1">
          <mxGeometry x="550" y="500" width="40" height="30" as="geometry" />
        </mxCell>
      </root>
    </mxGraphModel>
  </diagram>
</mxfile>
